<?xml version="1.0" encoding="UTF-8"?>
<svg id="svg8" width="3705.2pt" height="750pt" version="1.1" viewBox="0 0 3705.2 750" xmlns="http://www.w3.org/2000/svg" xmlns:cc="http://creativecommons.org/ns#" xmlns:dc="http://purl.org/dc/elements/1.1/" xmlns:rdf="http://www.w3.org/1999/02/22-rdf-syntax-ns#">
 <metadata id="metadata5">
  <rdf:RDF>
   <cc:Work rdf:about="">
    <dc:format>image/svg+xml</dc:format>
    <dc:type rdf:resource="http://purl.org/dc/dcmitype/StillImage"/>
    <dc:title/>
   </cc:Work>
  </rdf:RDF>
 </metadata>
 <g id="layer1" transform="translate(146.76 547.01)">
  <g id="g2190" transform="matrix(20.965 0 0 20.965 2930.1 -4052.8)">
   <path id="path355" d="m-146.76 202.39h5.582v-35.176h-5.582zm6.3516-18.551 16.727 18.551h8.0312l-17.277-18.605 17.223-16.566h-7.9219z"/>
   <path id="path357" d="m-106.32 178.69c-3.7969 0-6.7695 1.3125-8.8047 3.5625-2.0312 2.1914-3.0234 5.2109-3.0234 8.5 0 6.9492 5.2266 12.242 12.047 12.242 4.1289 0 7.8125-1.3711 10.238-4.4414l-3.5234-3.9258c-2.2578 2.7695-3.7422 3.2695-6.4922 3.2695-4.5117 0-6.2188-2.5469-6.8242-4.9844h17.605l0.05469-0.38672c0.11328-0.77735 0.16797-1.5508 0.16797-2.3281 0-6.9609-4.9531-11.508-11.445-11.508m-6.0508 9.9023c0.60156-3.2226 2.6953-5.4648 6.2695-5.4648 2.918 0 5.1172 2.1875 5.668 5.4648h-11.938"/>
   <path id="path359" d="m-80.332 178.69c-1.4375 0-4.4727 0.0508-6.9062 2.5938v-2.0547h-5.5273v23.168h5.582v-12.508c0-3.5274 2.4297-6.3398 5.3008-6.3398 2.1523 0 3.6445 1.4883 3.6445 3.7461v15.102h5.6406v-16.484c0-4.0274-3.4766-7.2227-7.7344-7.2227"/>
   <path id="path361" d="m-42.547 178.69c-1.5469 0-5.1367 0.0508-7.8945 3.4219-1.3203-2.0976-3.7422-3.4219-6.5469-3.4219-1.4297 0-4.4531 0.0508-6.875 2.5938v-2.0547h-5.5274v23.168h5.582v-12.508c0-3.5274 2.4688-6.3398 5.2695-6.3398 2.1367 0 3.6758 1.4883 3.6758 3.7461v15.102h5.582v-13.887c0-3.0312 2.7031-4.9609 5.1289-4.9609 2.2656 0 3.7539 1.4883 3.7539 3.7461v15.102h5.582v-16.484c0-4.0274-3.4766-7.2227-7.7305-7.2227"/>
   <path id="path363" d="m-20.559 183.85c3.418 0 6.8359 2.918 6.8359 6.9961 0 4.5156-3.6953 7.0508-6.8359 7.0508-3.8047 0-6.7305-3.0859-6.7305-7.1055 0-4.1914 3.2578-6.9414 6.7305-6.9414m-0.0352-5.1016c-6.9961 0-12.395 5.2774-12.395 12.043 0 7.0898 5.2891 12.203 12.508 12.203 7.1602 0 12.34-5.168 12.34-12.316 0-3.1328-1.2656-6.1562-3.5273-8.4102-2.3125-2.3125-5.0664-3.5195-8.9258-3.5195"/>
   <path id="path365" d="m8.4099 178.96c-0.93359-0.21875-1.5938-0.27344-2.1445-0.27344-1.4297 0-4.457 0.0547-6.8242 2.5898v-2.0469h-5.5273v23.168h5.582v-12.512c0-3.5234 2.4219-6.3359 5.2305-6.3359 0.60156 0 1.0977 0.10938 1.5938 0.33204l0.44141 0.16406 1.6484-5.0859"/>
   <path id="path367" d="m18.531 178.69c-3.7969 0-6.7695 1.3125-8.8047 3.5625-2.0352 2.1914-3.0273 5.2109-3.0273 8.5 0 6.9492 5.2266 12.242 12.051 12.242 4.125 0 7.8125-1.3711 10.234-4.4414l-3.5234-3.9258c-2.2539 2.7695-3.7383 3.2695-6.4922 3.2695-4.5117 0-6.2188-2.5469-6.8203-4.9844h17.605l0.0547-0.38672c0.10938-0.77735 0.16406-1.5508 0.16406-2.3281 0-6.9609-4.9492-11.508-11.441-11.508m-6.0547 9.9023c0.60547-3.2226 2.6992-5.4648 6.2734-5.4648 2.9141 0 5.1172 2.1875 5.668 5.4648h-11.941"/>
  </g>
 </g>
</svg>
